<?xml version="1.0" encoding="iso-8859-1"?>
<!-- Uploaded to: SVG Repo, www.svgrepo.com, Generator: SVG Repo Mixer Tools -->
<svg version="1.1" id="Layer_1" xmlns="http://www.w3.org/2000/svg" xmlns:xlink="http://www.w3.org/1999/xlink" 
	 viewBox="0 0 469.333 469.333" xml:space="preserve">
<g>
	<rect x="256" y="330.667" style="fill:#F5B945;" width="106.667" height="128"/>
	<rect x="96" y="117.333" style="fill:#F5B945;" width="85.333" height="138.667"/>
</g>
<g>
	<rect x="96" y="256" style="fill:#FFFFFF;" width="85.333" height="138.667"/>
	<rect x="117.333" y="394.667" style="fill:#FFFFFF;" width="42.667" height="64"/>
	<rect x="117.333" y="85.333" style="fill:#FFFFFF;" width="42.667" height="32"/>
</g>
<g>
	<circle style="fill:#F5B945;" cx="437.333" cy="128" r="21.333"/>
	<circle style="fill:#F5B945;" cx="32" cy="266.667" r="21.333"/>
</g>
<g>
	<circle style="fill:#FFFFFF;" cx="234.667" cy="32" r="21.333"/>
	<circle style="fill:#FFFFFF;" cx="437.333" cy="416" r="21.333"/>
</g>
<path d="M181.333,106.667h-10.667V85.333c0-5.899-4.779-10.667-10.667-10.667h-10.667v-64C149.333,4.768,144.555,0,138.667,0
	S128,4.768,128,10.667v64h-10.667c-5.888,0-10.667,4.768-10.667,10.667v21.333H96c-5.888,0-10.667,4.768-10.667,10.667V256v138.667
	c0,5.899,4.779,10.667,10.667,10.667h10.667V448H96c-5.888,0-10.667,4.768-10.667,10.667S90.112,469.333,96,469.333h21.333H160
	h21.333c5.888,0,10.667-4.768,10.667-10.667S187.221,448,181.333,448h-10.667v-42.667h10.667c5.888,0,10.667-4.768,10.667-10.667
	V256V117.333C192,111.435,187.221,106.667,181.333,106.667z M128,96h21.333v10.667H128V96z M117.333,128H160h10.667v117.333H128
	h-21.333V224H128c5.888,0,10.667-4.768,10.667-10.667c0-5.899-4.779-10.667-10.667-10.667h-21.333v-21.333H128
	c5.888,0,10.667-4.768,10.667-10.667S133.888,160,128,160h-21.333v-32H117.333z M149.333,448H128v-42.667h21.333V448z M170.667,384
	H160h-42.667h-10.667v-32H128c5.888,0,10.667-4.768,10.667-10.667s-4.779-10.667-10.667-10.667h-21.333v-21.333H128
	c5.888,0,10.667-4.768,10.667-10.667c0-5.899-4.779-10.667-10.667-10.667h-21.333v-21.333H128h42.667V384z"/>
<path d="M437.333,160c-17.643,0-32-14.357-32-32s14.357-32,32-32s32,14.357,32,32S454.976,160,437.333,160z M437.333,117.333
	c-5.888,0-10.667,4.779-10.667,10.667s4.779,10.667,10.667,10.667S448,133.888,448,128S443.221,117.333,437.333,117.333z"/>
<path d="M32,298.667c-17.643,0-32-14.357-32-32c0-17.643,14.357-32,32-32s32,14.357,32,32C64,284.309,49.643,298.667,32,298.667z
	 M32,256c-5.877,0-10.667,4.779-10.667,10.667S26.123,277.333,32,277.333s10.667-4.779,10.667-10.667S37.877,256,32,256z"/>
<path d="M234.667,64c-17.643,0-32-14.357-32-32s14.357-32,32-32s32,14.357,32,32S252.309,64,234.667,64z M234.667,21.333
	C228.789,21.333,224,26.112,224,32s4.789,10.667,10.667,10.667S245.333,37.888,245.333,32S240.544,21.333,234.667,21.333z"/>
<path d="M437.333,448c-17.643,0-32-14.357-32-32c0-17.643,14.357-32,32-32s32,14.357,32,32C469.333,433.643,454.976,448,437.333,448
	z M437.333,405.333c-5.888,0-10.667,4.779-10.667,10.667c0,5.888,4.779,10.667,10.667,10.667S448,421.888,448,416
	C448,410.112,443.221,405.333,437.333,405.333z"/>
<path style="fill:#F5B945;" d="M330.667,160c0-11.787-9.547-21.333-21.333-21.333S288,148.213,288,160v32h42.667V160z"/>
<path style="fill:#FFFFFF;" d="M330.667,239.168V192H288v47.168c-18.816,8.235-32,26.976-32,48.832v42.667h21.621
	c8.885,6.613,19.776,10.667,31.712,10.667s22.827-4.053,31.712-10.667h21.621V288C362.667,266.144,349.483,247.403,330.667,239.168z
	"/>
<path d="M341.333,232.629V192v-32c0-17.643-14.357-32-32-32s-32,14.357-32,32v32v40.629c-19.648,11.349-32,32.384-32,55.371v170.667
	c0,5.899,4.768,10.667,10.667,10.667h106.667c5.899,0,10.667-4.768,10.667-10.667V288
	C373.333,265.013,360.981,243.979,341.333,232.629z M298.667,160c0-5.888,4.779-10.667,10.667-10.667S320,154.112,320,160v21.333
	h-21.333V160z M266.667,288c0-16.917,10.048-32.245,25.611-39.061c3.883-1.696,6.389-5.536,6.389-9.771v-36.501H320v36.501
	c0,4.235,2.507,8.075,6.389,9.771C341.952,255.755,352,271.083,352,288v32h-10.955c-2.293,0-4.533,0.736-6.368,2.112
	c-15.04,11.189-35.648,11.189-50.688,0c-1.835-1.376-4.075-2.112-6.368-2.112h-10.955V288z M352,448h-85.333V341.333h7.595
	C284.8,348.32,296.853,352,309.333,352c12.48,0,24.533-3.68,35.072-10.667H352V448z"/>
</svg>